<svg xmlns="http://www.w3.org/2000/svg" viewBox="0 0 430.25 266.48"><defs><style>.cls-1{fill:#3f4040;}.cls-2{fill:#feef00;}</style></defs><title>logo-header</title><g id="Camada_2" data-name="Camada 2"><g id="Camada_3" data-name="Camada 3"><g id="Camada_1_c贸pia_c贸pia_2" data-name="Camada 1 c贸pia c贸pia 2"><path class="cls-1" d="M306.61.07c-11.16,19.6-21.76,38.21-32.37,56.82s-21.06,37-31.66,55.4c-1.5,2.61-2.31,4.62-.33,7.67,8.36,12.89,16.35,26,24.72,39.46l54-93.79Q338.76,34.84,356.55,4C357.74,2,358.64,0,361.83,0c22.42.14,44.85.08,68.42.08L278.63,266.47c-21.93-35-43.3-69.49-63.42-105.9-20.19,35.5-40,70.35-60.24,105.91-12.46-20.18-24.43-39.71-36.61-59.12-1.74-2.78-.25-4.41.92-6.44Q176.22,102.31,233.1,3.67C234.58,1.12,236.15,0,239.24,0,261.27.14,283.29.07,306.61.07Z"/><path class="cls-2" d="M0,.21H185.5c1,2.1-.64,3.4-1.43,4.74q-43.95,74.25-88,148.44c-1.79,3-2.73,5.71-5.7.66Q45.72,78.32.83,2.72A16.53,16.53,0,0,1,0,.21Z"/></g></g></g></svg>