<svg xmlns="http://www.w3.org/2000/svg" viewBox="0 0 72.48 52.9"><defs><style>.cls-1{fill:#31373f;}</style></defs><title>cartao-interativo</title><g id="Camada_2" data-name="Camada 2"><g id="Objects"><path class="cls-1" d="M71.82,52.9c-6.16-.26-12.08-.55-18-.75s-11.75-.31-17.62-.45-11.92-.31-17.88-.39-11.66.56-17.59.41C.54,49.59.28,47.79.23,46,.11,40.93,0,35.88,0,30.84.12,21.74.4,12.65.54,3.55A2.1,2.1,0,0,1,2.31,1.26,38.24,38.24,0,0,1,7.23.88C8.46.81,9.7.75,10.93.74Q30.19.54,49.44.35C55.73.28,62,.14,68.32,0c.41,0,.83,0,1.24,0,2,.17,2.88,1,2.91,3q.06,4.59-.1,9.2c-.14,4.21-.51,8.42-.56,12.64-.09,8,0,16,0,24.06C71.78,50.1,71.8,51.32,71.82,52.9ZM2.62,49.37c1.2.08,2,.17,2.83.17,9.53.06,19.05.09,28.58.14,3.15,0,6.3,0,9.45.13,7.21.22,14.41.51,21.61.73,1.46.05,2.92-.07,4.54-.12.16-10.66.31-21,.47-31.71C47.4,18.5,25,17,2.52,18.48,1.57,28.78,2.39,38.92,2.62,49.37Zm.17-33.48,67.38.51a24,24,0,0,0,.06-7.13c-.8,0-1.45-.1-2.1-.09-5.79.05-11.58.14-17.37.17-8.69.05-17.38,0-26.07.08-6.12,0-12.25.12-18.37.29-3.74.1-4.27.8-3.88,4.52A14.17,14.17,0,0,0,2.79,15.89ZM70.23,2.3c-3.67-.15-7-.38-10.27-.38-2.64,0-5.28.38-7.92.42-14.58.17-29.16.27-43.74.47A11.17,11.17,0,0,0,2.8,4c0,1.24,0,2.36,0,3.63,22.56-.15,45,.07,67.44-.65C70.26,5.21,70.25,3.85,70.23,2.3Z"/><path class="cls-1" d="M6.52,29.87C6.07,26.67,5.69,24,5.3,21.2A16.39,16.39,0,0,1,7.19,21c8.69.13,17.39.32,26.09.41,4.87.05,9.73-.09,14.6-.07,3,0,5.92.21,8.88.19,2.73,0,5.46-.28,8.19-.33,2.45,0,2.88.46,2.66,2.88-.14,1.48-.38,2.95-.48,4.43A1.46,1.46,0,0,1,65.73,30a32.15,32.15,0,0,1-4.67.55c-6.13,0-12.26,0-18.39-.08-5.71-.1-11.42-.36-17.13-.55-4-.13-7.95-.29-11.92-.35-1.47,0-2.95.23-4.43.31C8.33,29.89,7.47,29.87,6.52,29.87ZM8.6,27.46c.37,0,.78.06,1.19.07,7,.25,14.06.68,21.09.7,10.59,0,21.18,1,31.77,0,2.55-.26,2.81-.39,2.95-2.93,0-.56,0-1.13,0-1.67L8,23.15C7.42,24.94,7.42,24.94,8.6,27.46Z"/><path class="cls-1" d="M6.42,42l5.25,0q12.53-.12,25.07-.24c3,0,5.95,0,8.92-.07,1.57,0,3.13-.17,4.68-.35s1.55-.18,1.83,1.81a9.54,9.54,0,0,1-1.59.42,28.91,28.91,0,0,1-3.22.14C36.63,43.44,25.9,44,15.18,44,12.79,44,10.41,44,8,43.83,7.2,43.79,6.33,43.59,6.42,42Z"/><path class="cls-1" d="M7.32,46l12.34-.11,20.61-.19c4.63-.05,9.27-.09,13.91-.16,1.26,0,2.06.36,2,1.88a8,8,0,0,1-1,.18c-5.36,0-10.73.06-16.09,0-3.55,0-7.1-.18-10.66-.18-4.95,0-9.9.05-14.85.08-1.65,0-3.3.07-5,0C7.65,47.49,7.65,47.38,7.32,46Z"/><path class="cls-1" d="M6.52,37.61c5.84,0,11.14-.07,16.43-.14q10.92-.16,21.83-.4c2,0,2,0,2.45,1.92a7.17,7.17,0,0,1-1.35.27c-8.36,0-16.73-.11-25.1-.09-3.63,0-7.26.27-10.9.34A7.93,7.93,0,0,1,7.25,39C7,39,6.87,38.32,6.52,37.61Z"/></g></g></svg>