<svg xmlns="http://www.w3.org/2000/svg" viewBox="0 0 39.33 39.51"><defs><style>.cls-1{fill:#31373f;}.cls-2{fill:none;stroke:#31373f;stroke-miterlimit:10;stroke-width:2px;}</style></defs><title>instagram</title><g id="Camada_2" data-name="Camada 2"><g id="Camada_3" data-name="Camada 3"><path class="cls-1" d="M1.57,6.93c-.29-1,.66-2.77,1.43-3.47A9.21,9.21,0,0,1,6.37,1.85.62.62,0,0,0,6,.65,8.42,8.42,0,0,0,1.79,3C.87,4.14-.08,5.74.37,7.26a.62.62,0,0,0,1.2-.33Z"/><path class="cls-1" d="M5.86.94a21.12,21.12,0,0,1-2,.93,18.76,18.76,0,0,0-2.1,1.46A5.82,5.82,0,0,0,.2,6.75c-.07.8,1.18.8,1.25,0A4.66,4.66,0,0,1,3.63,3.54,9.14,9.14,0,0,1,5,2.7,6.91,6.91,0,0,0,6.49,2c.64-.48,0-1.56-.63-1.08Z"/><path class="cls-1" d="M7.7,1A12.69,12.69,0,0,0,3.06,2c-.75.27-.43,1.47.33,1.21a11.8,11.8,0,0,1,4.31-1c.81,0,.81-1.21,0-1.25Z"/><path class="cls-1" d="M6.2.19a5,5,0,0,0-2.41.93A7.89,7.89,0,0,0,1.6,2.62,7.53,7.53,0,0,0,0,7.54c.06.79,1.31.8,1.25,0a6,6,0,0,1,1-3.61A6.35,6.35,0,0,1,6.2,1.44C7,1.4,7,.15,6.2.19Z"/><path class="cls-1" d="M.34,32.36A4.76,4.76,0,0,0,1.63,36.9,10,10,0,0,0,7,38.6L6.8,37.37l.14.09-.1.76A.71.71,0,0,1,7.1,38c.63-.5-.26-1.38-.88-.89a.83.83,0,0,0-.26.23.65.65,0,0,0-.1.76,1.07,1.07,0,0,0,1.27.49c.72-.16.51-1.19-.16-1.23a11.55,11.55,0,0,1-3.69-1,3.16,3.16,0,0,1-1.73-3.7c.16-.79-1-1.12-1.21-.34Z"/><path class="cls-1" d="M6.4,36.57a5.2,5.2,0,0,1-3.2-.93c-1.08-.77-1.29-2.13-1.65-3.32a.63.63,0,0,0-1.21.34c.45,1.47.77,3,2.09,4a6.48,6.48,0,0,0,4,1.19.63.63,0,0,0,0-1.25Z"/><path class="cls-1" d="M6.53,37.39a5.11,5.11,0,0,1-2.36-1,.63.63,0,0,0-.63,1.08,6.28,6.28,0,0,0,3,1.12c.81,0,.81-1.22,0-1.25Z"/><path class="cls-1" d="M38,33.57A6,6,0,0,1,36.33,37a4.77,4.77,0,0,1-3.82,1c-.81,0-.8,1.21,0,1.25a5.8,5.8,0,0,0,4.7-1.35,7.06,7.06,0,0,0,2-4.27c.08-.8-1.17-.79-1.25,0Z"/><path class="cls-1" d="M33.18,39.42c.38-.08.78.08,1.19,0a5.85,5.85,0,0,0,1.3-.37,5.91,5.91,0,0,0,2-1.69c.56-.59-.33-1.47-.88-.89A4.52,4.52,0,0,1,34.94,38a13.58,13.58,0,0,1-2.09.21c-.79.16-.46,1.36.33,1.21Z"/><path class="cls-1" d="M37.42,35.57c-.75.47-1.16,1.24-2,1.57a13.93,13.93,0,0,1-3.42.42c-.79.1-.8,1.35,0,1.25a18.66,18.66,0,0,0,3.66-.42c1.09-.36,1.49-1.18,2.4-1.74a.63.63,0,0,0-.63-1.08Z"/><path class="cls-1" d="M33.94,38.64c.67-.31,1.38-.27,2.05-.53a5.48,5.48,0,0,0,1.45-.87A4.32,4.32,0,0,0,39,34.54c.07-.8-1.19-.8-1.25,0,0,.41-.46.8-.66,1.15a2.68,2.68,0,0,1-1.13,1,26.27,26.27,0,0,1-2.64.84c-.73.33-.1,1.41.63,1.08Z"/><path class="cls-1" d="M38.93,8.08c.12-1.89-.38-4.28-2-5.52S33.06,1.13,31.05,1c-.8-.06-.79,1.19,0,1.25a10.77,10.77,0,0,1,4.74,1.06c1.6.93,2,3.1,1.89,4.79,0,.81,1.2.81,1.25,0Z"/><path class="cls-1" d="M31.25,2.36c2.49,1,5.69,1.26,6.51,4.3A.62.62,0,0,0,39,6.32a5,5,0,0,0-2.32-3.2c-1.6-1-3.34-1.26-5.05-2-.75-.3-1.07.91-.34,1.21Z"/><path class="cls-1" d="M32.16,1.81a9.38,9.38,0,0,0,1.06,0A.63.63,0,0,0,33.39.6l-.11,0L33.11,1.8A6.23,6.23,0,0,1,37,4.1a7.49,7.49,0,0,1,.75,4.14c0,.81,1.22.81,1.25,0,0-1.72-.06-3.82-1.23-5.22A7.42,7.42,0,0,0,33.11.55.63.63,0,0,0,33,1.78l.1,0L33.22.58a9.38,9.38,0,0,1-1.06,0c-.8,0-.8,1.21,0,1.25Z"/><circle class="cls-2" cx="19.81" cy="21.53" r="10.78"/><path class="cls-1" d="M31,9.69c3.22,0,3.23-5,0-5s-3.22,5,0,5Z"/><g id="Camada_4" data-name="Camada 4"><path class="cls-1" d="M5.83,2.33c.6,0,1.2-.06,1.8-.07,2.47,0,4.94,0,7.4,0q8.87.2,17.72.44A5.7,5.7,0,0,1,33.06.53C30,.47,27,.44,23.93.36,19.52.25,15.12,0,10.71,0,9.07,0,7.43.11,5.79.2A5.86,5.86,0,0,1,5.83,2.33Z"/><path class="cls-1" d="M34,37.35c-9.37-.14-18.72-1-28.17-.76a6,6,0,0,1,0,2l4.52.06c3.85.08,7.71.15,11.56.29,3.52.12,7,.32,10.55.48l1.48.07A5.61,5.61,0,0,1,34,37.35Z"/><path class="cls-1" d="M38,30.35c0,1.14,0,2.17,0,3.22a5.09,5.09,0,0,1,.69,0l.63,0c0-.66-.08-1.31-.1-2-.1-6.21-.16-12.42-.24-18.62l-.06-5.7a5.12,5.12,0,0,1-1.21.17c.06,2.62.06,5.25.12,7.87C38,20.32,38.06,25.34,38,30.35Z"/><path class="cls-1" d="M.28,32.72a5.31,5.31,0,0,1,.81-.07l.55,0c.05-8.77-.11-17.5-.1-26.32l-.41,0a5.7,5.7,0,0,1-.95-.08C.38,15.11.54,23.92.28,32.72Z"/></g></g></g></svg>