<svg xmlns="http://www.w3.org/2000/svg" viewBox="0 0 75.16 51.33"><defs><style>.cls-1{fill:#31373f;}</style></defs><title>notebook</title><g id="Camada_2" data-name="Camada 2"><g id="Camada_3" data-name="Camada 3"><path class="cls-1" d="M71.9,44.74c-.74,3.16-3.24,3.68-7.22,3.53h0a21,21,0,0,1-4.19,0,49.18,49.18,0,0,1-9.55-.13l-.19,0c-2.67,0-5.39-.05-8.13-.16-7.2.28-14.34.43-21.59.36-3.74,0-7.74.31-11.44-.24-1.28-.19-3.41-.11-4.66-.71a1.76,1.76,0,0,1-1.33-1.11A4.54,4.54,0,0,1,3,43.74c0-.18-.05-.37-.07-.56a1,1,0,0,1-.58-.64h0c-.23-.1-.43,0-.93.2a.71.71,0,0,1-.18.08L.76,43c0,.64,0,1.27,0,1.91-.1,4.62,0,6,5.83,6.11,4.82,0,9.64.36,14.45.32,8.42-.06,16.84-.32,25.26-.47,5.86-.1,11.73-.14,17.59-.23,2.73,0,5.47-.06,8.2-.18,1.71-.07,2.66-1.08,2.7-3,0-1.09,0-2.19,0-3.29A24.51,24.51,0,0,1,71.9,44.74Z"/><path class="cls-1" d="M75.15,3.38c-.08,2-.41,4-.42,6-.06,7.09,0,14.19,0,21.29,0,3.69.08,7.39,0,11.08,0,1.89-1,2.89-2.7,3-2.73.12-5.47.14-8.2.18-5.87.08-11.73.12-17.59.23-8.42.14-16.84.4-25.26.47-4.82,0-9.63-.3-14.45-.32-6.08,0-5.93-.09-5.83-6.12.18-11.35.37-22.69-.65-34C-.2,2.36.6,1.52,3.29,1.51q8.09-.06,16.17-.17c7.37-.11,14.73-.21,22.1-.38C48.27.81,55,.56,61.69.36L74.9,0A31.29,31.29,0,0,1,75.15,3.38ZM2.68,3.51c.61,13.06.23,26,.71,39.12,4.14.13,7.89.32,11.64.35,4.72,0,9.43,0,14.15-.08q19.73-.3,39.45-.67c3.41-.06,3.64-.33,3.76-3.82.08-2.27.06-4.55,0-6.82,0-7.94-.08-15.88-.11-23.82,0-1.57,0-3.15,0-5C49.18,2.61,26.15,4.47,2.68,3.51Z"/><path class="cls-1" d="M3.62,3.8c4.3,0,8.18.07,12.05.12C21.79,4,27.92,4.1,34,4.13c6.73,0,13.45,0,20.17,0Q61.59,4.11,69,4c2.46,0,3.2.69,3,3.07-.77,9.82-.45,19.64-.12,29.47.17,5.22.31,5.27-5.24,5.39-4.39.09-8.78.45-13.18.5-7.68.07-15.36,0-23,0-5.35,0-10.7,0-16,.07-2.5,0-5,0-7.48,0a2.35,2.35,0,0,1-2.51-2.53c-.11-3.2-.1-6.4-.14-9.6-.1-6.15-.16-12.3-.31-18.45,0-1.71-.36-3.42-.46-5.14A24,24,0,0,1,3.62,3.8ZM6,6.13c0,1.64.09,3,.11,4.36.08,6.88.14,13.76.22,20.64,0,2,0,3.94.14,5.91.16,3,.37,3.25,3.48,3.26q18,0,36,0c4.3,0,8.6,0,12.9-.15,3.43-.08,6.85-.3,10.62-.48.26-11.4-.27-22.58.11-33.9C48.15,6.94,27.12,5.67,6,6.13Z"/><path class="cls-1" d="M72.53,45.45a.63.63,0,0,0,0-1.25.63.63,0,0,0,0,1.25Z"/><path class="cls-1" d="M72.52,45.3a.63.63,0,0,0,0-1.25.63.63,0,0,0,0,1.25Z"/><path class="cls-1" d="M73.11,44.52a.92.92,0,0,0-.06-.33.65.65,0,0,0-.77-.44.63.63,0,0,0-.43.77c0,.06,0,.06,0,0,.07.8,1.32.8,1.25,0Z"/><path class="cls-1" d="M72.07,44.92q-.16-.53-.12-.24l0,.19c.15.79,1.35.45,1.21-.34a1,1,0,0,0-.49-.69.63.63,0,0,0-.63,1.08Z"/><path class="cls-1" d="M73.78,44.9l.11-.17-.44.18h0l-.54-.31a.77.77,0,0,0,.88.37,1.12,1.12,0,0,0,.8-.72l-1.14.15a.74.74,0,0,0,.83.39.61.61,0,0,0,.46-.6,2.13,2.13,0,0,0,0-.25c0-.06,0,0,0,.05l0-.17c0,.23,0-.13,0-.18s0-.21,0-.31a5.79,5.79,0,0,0-.26-1c-.29-.74-1.5-.42-1.2.33a4.55,4.55,0,0,1,.23.9,1.85,1.85,0,0,1,0,.39l0,.16c0-.12,0-.09,0,.1s0,.13,0,0l.46-.6h0l.61.16c0,.05,0,.05,0,0a.64.64,0,0,0-1.14.15l.16-.21-.07.06c-.15,0,.54.11.49.17s0-.07-.14-.14a.66.66,0,0,0-.38-.14c-.4,0-.59.32-.78.61-.45.67.63,1.3,1.08.63Z"/><path class="cls-1" d="M32,44.67c0,1.12-.16,2.56,1,3.15.82.41,2,.16,2.88.21s2,.07,3,0a25.11,25.11,0,0,0,2.74-.24,4.41,4.41,0,0,0,1.74-.26c1-.64,1.17-2.34,1.2-3.4,0-.8-1.22-.8-1.25,0A3.45,3.45,0,0,1,43,45.91c-.44.62-.36.39-1.07.58a14,14,0,0,1-3.36.35,26.64,26.64,0,0,1-2.68-.06c-.6,0-2.1.13-2.5-.41-.24-.33-.13-1.32-.13-1.7a.63.63,0,0,0-1.25,0Z"/></g></g></svg>